<svg width="21" height="20" viewBox="0 0 21 20" fill="none" xmlns="http://www.w3.org/2000/svg">
<path d="M13.7921 6.608L14.5511 6.86098C14.6469 6.57351 14.5721 6.25658 14.3578 6.04232C14.1436 5.82805 13.8266 5.75323 13.5392 5.84905L13.7921 6.608ZM12.0961 11.696L12.3491 12.4549C12.588 12.3753 12.7755 12.1879 12.8551 11.949L12.0961 11.696ZM7.00815 13.392L6.2492 13.139C6.15338 13.4265 6.2282 13.7434 6.44246 13.9577C6.65673 14.172 6.97366 14.2468 7.26113 14.1509L7.00815 13.392ZM8.70415 8.304L8.45116 7.54505C8.21228 7.62468 8.02483 7.81213 7.9452 8.05102L8.70415 8.304ZM17.6001 10C17.6001 13.9765 14.3766 17.2 10.4001 17.2V18.8C15.2603 18.8 19.2001 14.8601 19.2001 10H17.6001ZM10.4001 17.2C6.4237 17.2 3.20015 13.9765 3.20015 10H1.60015C1.60015 14.8601 5.54004 18.8 10.4001 18.8V17.2ZM3.20015 10C3.20015 6.02355 6.4237 2.8 10.4001 2.8V1.2C5.54004 1.2 1.60015 5.13989 1.60015 10H3.20015ZM10.4001 2.8C14.3766 2.8 17.6001 6.02355 17.6001 10H19.2001C19.2001 5.13989 15.2603 1.2 10.4001 1.2V2.8ZM13.0332 6.35502L11.3372 11.443L12.8551 11.949L14.5511 6.86098L13.0332 6.35502ZM11.8432 10.9371L6.75516 12.6331L7.26113 14.1509L12.3491 12.4549L11.8432 10.9371ZM7.76709 13.645L9.46309 8.55698L7.9452 8.05102L6.2492 13.139L7.76709 13.645ZM8.95713 9.06295L14.0451 7.36695L13.5392 5.84905L8.45116 7.54505L8.95713 9.06295Z" fill="#101828"/>
</svg>
