<svg width="21" height="20" viewBox="0 0 21 20" fill="none" xmlns="http://www.w3.org/2000/svg">
<path d="M3.80005 7.6L3.30029 6.97531C3.11052 7.12712 3.00005 7.35697 3.00005 7.6H3.80005ZM10.8 2L11.2998 1.3753C11.0076 1.14157 10.5925 1.14157 10.3003 1.3753L10.8 2ZM17.8 7.6H18.6C18.6 7.35697 18.4896 7.12712 18.2998 6.97531L17.8 7.6ZM3.80005 16.4H3.00005H3.80005ZM7.66672 18C7.66672 18.4418 8.02489 18.8 8.46672 18.8C8.90854 18.8 9.26672 18.4418 9.26672 18H7.66672ZM8.46672 10V9.2C8.02489 9.2 7.66672 9.55817 7.66672 10H8.46672ZM13.1334 10H13.9334C13.9334 9.55817 13.5752 9.2 13.1334 9.2V10ZM12.3334 18C12.3334 18.4418 12.6916 18.8 13.1334 18.8C13.5752 18.8 13.9334 18.4418 13.9334 18H12.3334ZM4.2998 8.2247L11.2998 2.6247L10.3003 1.3753L3.30029 6.97531L4.2998 8.2247ZM10.3003 2.6247L17.3003 8.2247L18.2998 6.97531L11.2998 1.3753L10.3003 2.6247ZM17 7.6V16.4H18.6V7.6H17ZM17 16.4C17 16.6193 16.9151 16.8253 16.7708 16.9737L17.918 18.089C18.3572 17.6373 18.6 17.0294 18.6 16.4H17ZM16.7708 16.9737C16.6273 17.1214 16.4375 17.2 16.2445 17.2V18.8C16.8766 18.8 17.4781 18.5415 17.918 18.089L16.7708 16.9737ZM16.2445 17.2H5.3556V18.8H16.2445V17.2ZM5.3556 17.2C5.16261 17.2 4.9728 17.1214 4.82926 16.9737L3.68206 18.089C4.12197 18.5415 4.72348 18.8 5.3556 18.8V17.2ZM4.82926 16.9737C4.68497 16.8253 4.60005 16.6193 4.60005 16.4H3.00005C3.00005 17.0294 3.24291 17.6373 3.68206 18.089L4.82926 16.9737ZM4.60005 16.4V7.6H3.00005V16.4H4.60005ZM9.26672 18V10H7.66672V18H9.26672ZM8.46672 10.8H13.1334V9.2H8.46672V10.8ZM12.3334 10V18H13.9334V10H12.3334Z" fill="#7F56D9"/>
</svg>
