<svg width="36" height="36" viewBox="0 0 36 36" fill="none" xmlns="http://www.w3.org/2000/svg">
<path d="M15 18L14.4343 17.4343C14.1219 17.7467 14.1219 18.2533 14.4343 18.5657L15 18ZM18.4343 22.5657C18.7467 22.8781 19.2533 22.8781 19.5657 22.5657C19.8781 22.2533 19.8781 21.7467 19.5657 21.4343L18.4343 22.5657ZM19.5657 14.5657C19.8781 14.2533 19.8781 13.7467 19.5657 13.4343C19.2533 13.1219 18.7467 13.1219 18.4343 13.4343L19.5657 14.5657ZM19.5657 21.4343L15.5657 17.4343L14.4343 18.5657L18.4343 22.5657L19.5657 21.4343ZM15.5657 18.5657L19.5657 14.5657L18.4343 13.4343L14.4343 17.4343L15.5657 18.5657Z" fill="#D0D5DD"/>
</svg>
