<svg width="36" height="36" viewBox="0 0 36 36" fill="none" xmlns="http://www.w3.org/2000/svg">
<path d="M21 18L21.5657 18.5657C21.7157 18.4157 21.8 18.2122 21.8 18C21.8 17.7878 21.7157 17.5843 21.5657 17.4343L21 18ZM17.5657 13.4343C17.2533 13.1219 16.7467 13.1219 16.4343 13.4343C16.1219 13.7467 16.1219 14.2533 16.4343 14.5657L17.5657 13.4343ZM16.4343 21.4343C16.1219 21.7467 16.1219 22.2533 16.4343 22.5657C16.7467 22.8781 17.2533 22.8781 17.5657 22.5657L16.4343 21.4343ZM16.4343 14.5657L20.4343 18.5657L21.5657 17.4343L17.5657 13.4343L16.4343 14.5657ZM20.4343 17.4343L16.4343 21.4343L17.5657 22.5657L21.5657 18.5657L20.4343 17.4343Z" fill="#101828"/>
</svg>
